<?xml version="1.0" encoding="UTF-8"?>
<svg width="12px" height="12px" viewBox="0 0 12 12" version="1.1" xmlns="http://www.w3.org/2000/svg" xmlns:xlink="http://www.w3.org/1999/xlink">
    <title>设置</title>
    <g id="CRM" stroke="none" stroke-width="1" fill="none" fill-rule="evenodd">
        <g id="线索管理-自定义检索项展开" transform="translate(-1746.000000, -203.000000)" fill="#0056FF" fill-rule="nonzero">
            <g id="编组-8" transform="translate(431.000000, 172.000000)">
                <g id="设置" transform="translate(1315.000000, 31.000000)">
                    <path d="M11.1397549,7.15782843 L10.1769314,7.15782843 C10.0854929,7.48226314 9.95706849,7.79511339 9.79418627,8.09022059 L10.4693235,8.76535784 C10.7814109,9.0775173 10.7814109,9.58355133 10.4693235,9.89571078 L9.90461765,10.4604167 C9.59238653,10.772331 9.08649583,10.772331 8.77426471,10.4604167 L8.09881373,9.78527941 C7.80673529,9.94810294 7.49457843,10.0761029 7.16642157,10.1680245 L7.16642157,11.1321029 C7.16624835,11.5712092 6.81023378,11.9270833 6.37112745,11.9270833 L5.57614706,11.9270833 C5.13704073,11.9270833 4.78102616,11.5712092 4.78085294,11.1321029 L4.78085294,10.1680245 C4.44509155,10.0729131 4.12186877,9.93810532 3.81802941,9.76645588 L3.12312745,10.4613578 C2.97338199,10.6111721 2.77024228,10.6953427 2.55842157,10.6953427 C2.34660086,10.6953427 2.14346114,10.6111721 1.99371569,10.4613578 L1.4290098,9.89665196 C1.11713148,9.58452845 1.11713148,9.07873626 1.4290098,8.76661275 L2.13583333,8.05978922 C1.98112416,7.77400821 1.85894904,7.47178001 1.77159804,7.15876961 L0.808460784,7.15876961 C0.369417323,7.15756042 0.0139970802,6.80157914 0.0134803922,6.36253431 L0.0134803922,5.56786765 C0.0136536096,5.12876136 0.369668185,4.77288722 0.80877451,4.77288725 L1.77159804,4.77288725 C1.86446078,4.44441667 1.99277451,4.13257353 2.15434314,3.8404951 L1.4290098,3.11516176 C1.27911858,2.96545719 1.19489486,2.76230215 1.19489486,2.55045588 C1.19489486,2.33860962 1.27911858,2.13545458 1.4290098,1.98575 L1.99371569,1.42135784 C2.14346114,1.27154359 2.34660086,1.18737303 2.55842157,1.18737303 C2.77024228,1.18737303 2.97338199,1.27154359 3.12312745,1.42135784 L3.84846078,2.14669118 C4.14053922,1.98355392 4.45269608,1.85555392 4.78085294,1.76363235 L4.78085294,0.800495098 C4.78102616,0.361388808 5.13704073,0.00551470588 5.57614706,0.00551470588 L6.37112745,0.00551470588 C6.81023378,0.00551470588 7.16624835,0.361388808 7.16642157,0.800495098 L7.16642157,1.76331863 C7.48202941,1.85304412 7.78446078,1.97414216 8.06744118,2.12755392 L8.77426471,1.42104412 C9.08649583,1.10912983 9.59238653,1.10912983 9.90461765,1.42104412 L10.4693235,1.98575 C10.6191187,2.13544189 10.7032815,2.33852967 10.7032815,2.55029902 C10.7032815,2.76206837 10.6191187,2.96515615 10.4693235,3.11484804 L9.77442157,3.80975 C9.94704361,4.11311297 10.0819017,4.43645627 10.1759902,4.77257353 L11.1397549,4.77257353 C11.5788612,4.7725735 11.9348758,5.12844763 11.935049,5.56755392 L11.935049,6.36253431 C11.935049,6.80176313 11.5789837,7.15782843 11.1397549,7.15782843 Z M5.97426471,3.58135784 C4.6574446,3.58135784 3.58995098,4.64885146 3.58995098,5.96567157 C3.58995098,7.28249168 4.6574446,8.34998529 5.97426471,8.34998529 C7.29108482,8.34998529 8.35857843,7.28249168 8.35857843,5.96567157 C8.35857843,4.64885146 7.29108482,3.58135784 5.97426471,3.58135784 L5.97426471,3.58135784 Z M5.97426471,7.15782843 C5.31544118,7.15782843 4.78210784,6.6244951 4.78210784,5.96567157 C4.78210784,5.30684804 5.31544118,4.77351471 5.97426471,4.77351471 C6.63308824,4.77351471 7.16642157,5.30684804 7.16642157,5.96567157 C7.16642157,6.6244951 6.63308824,7.15782843 5.97426471,7.15782843 L5.97426471,7.15782843 Z" id="形状"></path>
                </g>
            </g>
        </g>
    </g>
</svg>